<svg viewBox="0 0 18 18" xmlns="http://www.w3.org/2000/svg" fill="#666">
  <path d="M 5.83498,3.00489 C 5.38355,3.00908 5.01423,3.01717 4.69826,3.04298 4.31234,3.07451 4.03906,3.12763 3.82229,3.20509 L 3.62209,3.29103 C 3.18266,3.51493 2.815,3.85532 2.55861,4.27345 L 2.45607,4.45704 C 2.33015,4.70419 2.25008,5.01851 2.20803,5.53321 2.16535,6.05562 2.16506,6.72382 2.16506,7.66798 v 2.66409 c 0,0.9441 2.9e-4,1.6123 0.04297,2.1347 0.04205,0.5148 0.12212,0.8291 0.24804,1.0762 l 0.10254,0.1836 c 0.25639,0.4181 0.62407,0.7585 1.06348,0.9824 l 0.2002,0.086 c 0.21677,0.0774 0.49007,0.1305 0.87597,0.1621 0.31574,0.0258 0.68476,0.0339 1.13574,0.0381 z m 11.33004,7.32718 c 0,0.9222 3e-4,1.654 -0.0478,2.2431 -0.0427,0.5222 -0.1256,0.977 -0.3047,1.3946 l -0.083,0.1767 c -0.3355,0.6585 -0.8461,1.2096 -1.4727,1.5938 l -0.2754,0.1543 c -0.4657,0.2372 -0.9745,0.3389 -1.5712,0.3877 -0.5892,0.0481 -1.3209,0.0478 -2.2432,0.0478 H 6.83303 c -0.9223,0 -1.65403,3e-4 -2.24317,-0.0478 -0.52227,-0.0427 -0.9769,-0.1265 -1.39453,-0.3057 l -0.17676,-0.082 C 2.36016,15.55907 1.809,15.04837 1.42482,14.42187 L 1.27053,14.14647 C 1.0333,13.68077 0.9316,13.17197 0.88283,12.57517 0.8347,11.98607 0.83498,11.25427 0.83498,10.33207 V 7.66798 C 0.83498,6.74569 0.8347,6.01395 0.88283,5.42482 0.93159,4.82806 1.03331,4.31929 1.27053,3.85353 L 1.42482,3.57814 C 1.809,2.95163 2.36014,2.44097 3.01857,2.10548 L 3.19533,2.02247 C 3.61287,1.8434 4.06773,1.76045 4.58986,1.71778 5.179,1.66965 5.91073,1.66993 6.83303,1.66993 h 4.33399 c 0.9223,0 1.654,-2.8e-4 2.2432,0.04785 0.5967,0.04876 1.1055,0.15048 1.5712,0.3877 l 0.2754,0.1543 c 0.6265,0.38417 1.1372,0.93531 1.4727,1.59375 l 0.083,0.17675 c 0.1791,0.41754 0.262,0.8724 0.3047,1.39454 0.0481,0.58913 0.0478,1.32087 0.0478,2.24316 z m -10.00094,4.6679 h 4.00294 c 0.9442,0 1.6124,-3e-4 2.1348,-0.0429 0.5146,-0.0421 0.829,-0.1222 1.0761,-0.2481 l 0.1836,-0.1025 c 0.4182,-0.2564 0.7585,-0.6241 0.9824,-1.0635 l 0.086,-0.2002 c 0.0775,-0.2168 0.1306,-0.49 0.1621,-0.876 0.0427,-0.5224 0.043,-1.1906 0.043,-2.1347 V 7.66798 c 0,-0.94416 -3e-4,-1.61236 -0.043,-2.13477 -0.0315,-0.38592 -0.0847,-0.6592 -0.1621,-0.87597 l -0.086,-0.2002 C 15.32002,4.01761 14.97962,3.64995 14.56152,3.39357 L 14.37792,3.29103 C 14.13082,3.1651 13.81652,3.08503 13.30182,3.04298 12.77942,3.0003 12.11122,3.00001 11.16702,3.00001 H 7.16408 c 10e-6,0.00163 9.8e-4,0.00325 9.8e-4,0.00488 z"/>
</svg>